# xmcd
#
# Track frame offsets:
#	150
#	12474
#	27015
#	39516
#	51958
#	67289
#	84059
#	96151
#	108428
#	118650
#	129583
#	141452
#	156290
#	169047
#	182629
#	195225
#	207778
#	215804
#	225920
#	245504
#
# Disc length: 3410 seconds
# Revision: 0
# Processed by: cddbd v1.5.2PL0 Copyright (c) Steve Scherf et al.
# Submitted via: dBpowerAMP V12.0
#
DISCID=150d5014
DTITLE=Various Artist - Latest and Greatest Country Love
DYEAR=2013
DGENRE=Country
TTITLE0=Ray Stevens - Misty
TTITLE1=The Bellamy Brothers - If I Said You Had A Beautiful Body Would You Hold It Against Me
TTITLE2=Jeannie C. Riley - Good Enough To Be Your Wife
TTITLE3=Don Williams - You're My Best Friend
TTITLE4=Michael Martin Murphey - Long Line Of Love
TTITLE5=Rita Coolidge - I Don't Want To Talk About It
TTITLE6=Stand By Your Man - Tammy Wynnette
TTITLE7=Patsy Cline - Crazy
TTITLE8=Dolly Parton - Release Me
TTITLE9=Sandy Posey - Single Girl
TTITLE10=Skeeter Davies - The End Of The World
TTITLE11=Jeanne Pruett - Satin Sheets
TTITLE12=Jim Reeves - Have I Told You Lately That I Love You?
TTITLE13=Faron Young - It's Four In The Morning
TTITLE14=Bill Anderson - Still
TTITLE15=Ernest Tubb - I Love You Because
TTITLE16=Jerry Lee Lewis - Your Cheatin' Heart
TTITLE17=Johnny Cash - The Ways Of A Woman In Love
TTITLE18=Norman Blake - You Are My Sunshine
TTITLE19=The Everly Brothers - Bye Bye Love
EXTD=
EXTT0=
EXTT1=
EXTT2=
EXTT3=
EXTT4=
EXTT5=
EXTT6=
EXTT7=
EXTT8=
EXTT9=
EXTT10=
EXTT11=
EXTT12=
EXTT13=
EXTT14=
EXTT15=
EXTT16=
EXTT17=
EXTT18=
EXTT19=
PLAYORDER=
